<?xml version="1.0" standalone="no"?>
<!DOCTYPE svg PUBLIC "-//W3C//DTD SVG 20010904//EN"
 "http://www.w3.org/TR/2001/REC-SVG-20010904/DTD/svg10.dtd">
<svg version="1.0" xmlns="http://www.w3.org/2000/svg"
 width="2053.000000pt" height="1668.000000pt" viewBox="0 0 2053.000000 1668.000000"
 preserveAspectRatio="xMidYMid meet">
<g transform="translate(0.000000,1668.000000) scale(0.100000,-0.100000)"
fill="#000000" stroke="none">
<path d="M0 8340 l0 -8340 10265 0 10265 0 0 8340 0 8340 -6726 0 c-5377 0
-6724 -3 -6718 -12 11 -18 164 -225 251 -340 l73 -97 0 -6631 c0 -5551 -2
-6636 -13 -6663 -20 -47 -66 -98 -104 -113 -18 -8 -33 -18 -33 -22 0 -4 -127
-9 -282 -10 -156 -1 -330 -4 -388 -7 -58 -2 -211 -7 -340 -10 -129 -3 -264 -8
-300 -10 -36 -2 -135 -7 -220 -10 -85 -3 -180 -8 -210 -10 -30 -2 -116 -7
-190 -10 -74 -3 -151 -8 -170 -10 -19 -2 -91 -7 -160 -11 -69 -3 -132 -8 -140
-9 -8 -2 -69 -6 -135 -9 -66 -4 -131 -9 -145 -11 -14 -2 -59 -7 -100 -10 -41
-3 -95 -8 -120 -10 -428 -42 -604 -61 -800 -86 -1379 -173 -2284 -447 -2638
-797 -70 -70 -132 -154 -132 -181 0 -8 26 -41 58 -72 218 -212 798 -378 1752
-504 57 -7 476 -53 555 -60 33 -4 76 -8 95 -10 19 -2 69 -7 110 -10 41 -4 91
-8 110 -10 19 -2 80 -7 135 -10 55 -4 107 -9 115 -10 8 -2 74 -6 145 -10 72
-4 137 -9 145 -10 8 -2 83 -6 165 -10 83 -4 157 -9 165 -10 8 -2 87 -6 175
-10 88 -3 180 -8 205 -10 25 -2 126 -6 225 -10 99 -3 205 -8 235 -10 30 -2
168 -7 305 -10 138 -4 279 -8 315 -10 525 -27 4031 -27 4795 0 66 2 257 7 425
10 168 3 357 8 420 10 63 2 219 7 345 10 127 3 280 7 340 10 61 2 200 7 310
10 110 3 238 8 285 10 47 2 171 7 275 10 105 3 224 8 265 10 41 3 143 7 225
10 83 3 193 7 245 10 52 3 151 7 220 10 127 5 256 12 410 20 47 3 168 9 270
15 102 5 217 12 255 15 39 3 140 9 225 15 85 5 184 12 220 15 36 2 108 7 160
10 52 3 115 8 140 10 25 2 88 7 140 10 52 3 115 7 140 10 25 2 86 7 135 10 50
3 115 8 145 10 30 3 118 9 195 15 77 6 160 12 185 15 25 2 77 7 115 10 39 3
86 7 105 10 19 2 71 7 115 10 140 11 545 54 795 86 758 95 1406 221 1965 380
165 47 387 119 398 128 13 12 -50 98 -104 141 -169 133 -481 217 -994 267
-144 13 -286 17 -712 17 -292 1 -530 3 -527 5 10 10 528 81 729 100 339 31
780 35 990 7 338 -44 568 -131 712 -269 101 -97 169 -253 143 -331 -57 -173
-624 -374 -1580 -559 -365 -71 -436 -84 -730 -131 -359 -58 -720 -110 -1255
-181 -206 -27 -964 -115 -1210 -140 -82 -8 -168 -17 -190 -20 -46 -5 -417 -41
-575 -55 -58 -6 -121 -12 -140 -15 -19 -2 -73 -7 -120 -10 -47 -3 -101 -8
-120 -10 -19 -2 -69 -7 -110 -10 -41 -3 -91 -8 -110 -10 -19 -2 -73 -7 -120
-10 -47 -3 -101 -8 -120 -10 -19 -2 -71 -7 -115 -10 -44 -3 -134 -10 -200 -15
-66 -6 -149 -12 -185 -15 -36 -3 -119 -9 -185 -15 -66 -5 -192 -14 -280 -20
-88 -5 -187 -12 -220 -15 -143 -11 -516 -35 -785 -50 -52 -3 -122 -8 -155 -10
-33 -2 -118 -7 -190 -10 -71 -3 -150 -8 -175 -10 -25 -2 -112 -7 -195 -10 -82
-4 -166 -8 -185 -10 -19 -2 -114 -6 -210 -10 -96 -3 -197 -8 -225 -10 -27 -2
-129 -7 -225 -10 -96 -3 -202 -8 -235 -10 -33 -2 -166 -7 -295 -10 -129 -4
-245 -8 -256 -10 -12 -2 -185 -6 -385 -10 -200 -4 -374 -8 -386 -10 -48 -7
-1036 -19 -1623 -19 -569 1 -1311 10 -1500 19 -41 2 -181 6 -310 10 -129 3
-257 8 -285 10 -27 2 -122 7 -210 10 -88 3 -187 8 -220 10 -33 2 -109 7 -170
10 -179 9 -446 27 -610 40 -33 3 -143 12 -245 20 -162 13 -286 25 -425 40 -22
2 -65 7 -95 10 -1005 106 -1823 275 -2325 482 -101 42 -269 128 -346 179 -104
68 -239 204 -278 281 -100 200 -102 443 -4 638 312 618 1592 1076 3773 1350
107 14 218 27 245 30 28 3 66 8 85 10 77 10 393 42 485 50 33 3 80 8 105 10
128 13 505 43 630 50 58 4 115 8 126 10 12 2 84 6 160 10 77 4 149 8 161 10
12 2 100 7 195 10 95 4 175 9 178 10 3 2 104 6 225 10 121 4 234 9 250 10 17
2 76 3 133 4 l102 1 0 6570 0 6570 -3520 0 -3520 0 0 -8340z m8408 6668 l172
-198 -2 -5922 -3 -5923 -22 -41 c-80 -150 -246 -150 -326 0 l-22 41 -3 6140
c-2 5972 -2 6139 16 6120 11 -11 96 -109 190 -217z m1332 -6723 l0 -5310 -24
-51 c-76 -164 -286 -144 -335 31 -9 30 -12 1464 -14 5527 l-2 5488 188 -187
187 -188 0 -5310z m1073 4325 l97 -84 -2 -4776 c-3 -4577 -4 -4777 -21 -4815
-81 -179 -293 -160 -346 31 -8 28 -11 1454 -11 4967 l0 4928 93 -83 c50 -46
136 -121 190 -168z m1072 -886 l185 -146 0 -4286 c0 -3032 -3 -4299 -11 -4327
-32 -118 -143 -183 -242 -141 -41 17 -81 60 -104 111 -17 38 -18 226 -21 4488
-1 2446 0 4447 3 4447 2 0 88 -66 190 -146z m1113 -826 c73 -51 157 -110 187
-131 l55 -38 -2 -3872 -3 -3872 -23 -50 c-28 -61 -47 -82 -94 -106 -80 -41
-169 -11 -223 75 l-30 49 -3 4019 c-1 2210 -1 4018 1 4018 2 0 63 -42 135 -92z
m1225 -811 l177 -109 -2 -3507 -3 -3506 -22 -41 c-45 -85 -118 -125 -200 -109
-53 9 -126 86 -141 148 -18 70 -17 7251 1 7241 6 -4 92 -56 190 -117z"/>
</g>
</svg>
