<?xml version="1.0" standalone="no"?>
<!DOCTYPE svg PUBLIC "-//W3C//DTD SVG 20010904//EN"
 "http://www.w3.org/TR/2001/REC-SVG-20010904/DTD/svg10.dtd">
<svg version="1.0" xmlns="http://www.w3.org/2000/svg"
 width="2053.000000pt" height="1668.000000pt" viewBox="0 0 2053.000000 1668.000000"
 preserveAspectRatio="xMidYMid meet">
<metadata>
Created by potrace 1.15, written by Peter Selinger 2001-2017
</metadata>
<g transform="translate(0.000000,1668.000000) scale(0.100000,-0.100000)"
fill="#000000" stroke="none">
<path d="M0 8340 l0 -8340 10265 0 10265 0 0 8340 0 8340 -6730 0 c-3701 0
-6730 -4 -6730 -8 0 -4 4 -12 9 -17 6 -6 2 -19 -10 -35 -17 -21 -19 -22 -10
-3 17 33 14 48 -5 32 -15 -12 -16 -11 -10 9 l7 22 -3525 0 -3526 0 0 -8340z
m7132 8217 c-5 -19 -3 -20 10 -10 8 7 18 10 21 6 9 -8 -13 -34 -23 -28 -4 3
-10 -1 -13 -9 -4 -9 8 -23 29 -38 18 -12 34 -26 34 -30 0 -14 -28 -8 -34 7 -3
8 -12 15 -21 15 -18 0 -21 -20 -2 -21 10 0 10 -2 0 -6 -8 -2 -13 -22 -13 -44
0 -39 0 -39 40 -39 38 0 40 1 41 33 l1 32 7 -30 c4 -16 3 -31 -1 -33 -4 -2 -8
-21 -8 -43 0 -39 0 -39 40 -39 l40 0 0 -40 c0 -40 0 -40 40 -40 27 0 42 6 49
18 6 9 11 12 11 5 0 -6 -4 -15 -10 -18 -7 -4 -10 -2217 -10 -6606 l0 -6599
-40 0 -40 0 0 -40 0 -40 -40 0 -40 0 0 -40 0 -40 -77 -1 c-43 0 -196 -1 -339
-2 -226 -2 -264 -4 -280 -18 -16 -14 -46 -16 -181 -16 -90 0 -163 4 -163 8 0
5 54 6 120 2 104 -5 120 -4 120 9 0 14 -32 16 -252 15 -139 0 -247 -2 -240 -4
17 -7 15 -33 -4 -33 -8 0 -12 4 -9 10 4 6 -8 10 -27 11 -27 0 -30 2 -13 9 12
5 -120 9 -317 9 l-338 1 0 -40 c0 -25 -5 -40 -12 -41 -10 0 -10 -2 0 -6 15 -6
16 -23 1 -23 -6 0 -17 7 -25 15 -17 17 -44 20 -44 6 0 -5 8 -12 18 -14 9 -2 4
-5 -13 -5 -16 0 -48 -2 -70 -5 -22 -2 -28 -2 -12 0 15 2 27 8 27 13 0 5 8 11
18 13 9 3 -14 3 -51 1 -38 -2 -72 -6 -77 -9 -5 -3 -11 -1 -15 5 -3 5 -11 10
-18 10 -8 0 -8 -3 1 -12 20 -20 14 -27 -18 -25 -16 1 -30 5 -30 9 0 3 -6 8
-12 11 -7 2 -5 3 5 2 9 -2 17 0 17 4 0 4 -55 8 -121 8 -67 1 -116 -3 -109 -7
9 -6 7 -11 -8 -19 -26 -14 -42 -14 -42 -1 0 6 7 10 15 10 8 0 15 5 15 10 0 6
-19 10 -42 10 -34 0 -40 -3 -28 -11 12 -9 11 -9 -5 -2 -11 4 -107 9 -212 11
l-193 3 0 -41 0 -40 93 -2 92 -1 -80 -7 c-45 -4 -88 -3 -98 2 -10 5 -26 7 -35
5 -13 -4 -12 -7 8 -13 23 -8 22 -9 -15 -14 -22 -3 -62 0 -90 6 -78 19 -177 25
-210 14 -27 -9 -25 -9 15 -5 l45 5 -35 -14 c-29 -12 -31 -15 -12 -15 13 -1 21
-5 18 -10 -6 -9 -26 -7 -84 11 -27 8 -31 12 -21 24 10 12 -12 14 -150 14
l-161 0 0 -40 c0 -45 -1 -44 90 -40 30 1 51 -2 47 -6 -4 -5 -38 -9 -75 -10
-37 -1 -78 -5 -92 -8 -21 -5 -20 -4 5 8 28 13 22 14 -80 11 -60 -2 -123 -8
-140 -13 -24 -8 -15 -9 49 -8 62 1 80 -2 84 -14 4 -12 2 -13 -9 -2 -7 6 -20
12 -28 12 -12 0 -13 -2 -3 -8 8 -6 2 -9 -17 -9 -17 0 -28 3 -26 7 2 4 -25 6
-61 4 -56 -2 -64 0 -62 14 3 15 -11 17 -119 20 l-123 3 0 -41 c0 -31 4 -40 18
-40 9 -1 -1 -8 -23 -16 -22 -9 -48 -16 -58 -15 -9 0 -15 -4 -13 -8 3 -4 -11
-8 -31 -9 -20 -2 -41 -6 -47 -10 -6 -3 -19 -5 -28 -4 -10 2 -27 -2 -39 -8 -17
-10 -20 -9 -17 2 3 7 22 16 44 19 21 3 30 7 18 8 -11 0 -21 8 -21 16 0 18 62
21 72 5 4 -7 -3 -9 -22 -5 -21 5 -24 4 -13 -4 14 -10 70 -16 70 -7 0 2 2 11 5
19 5 11 -21 14 -155 16 l-160 2 0 -46 0 -47 38 6 37 6 -34 -15 c-40 -18 -55
-19 -84 -3 -12 6 -51 12 -87 14 -36 1 -56 0 -45 -3 11 -3 26 -10 33 -16 10 -8
16 -7 22 4 7 11 12 11 22 1 6 -6 10 -12 7 -13 -2 0 -31 -2 -64 -4 -43 -2 -51
-1 -30 5 28 7 27 8 -13 9 -26 1 -41 5 -37 11 4 6 -25 10 -79 10 l-86 0 0 -39
c0 -22 5 -41 13 -44 6 -3 -15 -3 -48 -2 -55 3 -57 3 -25 -7 19 -6 53 -10 75
-10 39 0 39 0 10 -9 -19 -5 -41 -5 -59 1 -16 6 -39 10 -52 10 -12 0 -25 6 -28
13 -5 9 -7 9 -12 0 -3 -7 -10 -13 -15 -13 -6 0 -7 4 -4 10 4 6 -27 10 -84 10
l-91 0 0 -45 c0 -34 5 -47 19 -55 31 -16 49 -11 21 6 -17 10 -18 13 -5 9 43
-15 55 -17 55 -9 0 5 15 10 33 11 28 1 26 -1 -18 -16 -78 -28 -103 -34 -85
-22 12 9 11 11 -7 11 -14 0 -23 6 -23 15 0 8 -4 15 -10 15 -17 0 -11 -28 7
-40 17 -11 17 -11 0 -6 -10 3 -25 6 -32 6 -8 0 -11 7 -8 19 4 17 -3 19 -91 20
l-96 2 0 -46 0 -47 33 6 c26 5 28 4 12 -4 -16 -8 -14 -9 15 -7 19 2 44 8 55
12 16 6 18 5 8 -5 -6 -7 -47 -16 -90 -20 -43 -5 -86 -11 -95 -15 -14 -6 -18
-2 -18 19 0 24 -4 26 -40 26 -40 0 -40 0 -40 -39 0 -42 -13 -53 -52 -45 -20 5
-21 4 -5 -6 10 -6 25 -9 34 -6 8 4 22 1 29 -5 7 -6 19 -7 26 -3 10 5 10 4 2
-5 -12 -13 -114 4 -114 20 0 5 -18 9 -40 9 l-40 0 0 -50 c0 -39 -4 -50 -16
-50 -8 0 -13 3 -11 8 3 4 -26 8 -64 10 l-69 3 0 -40 0 -41 -40 0 c-40 0 -40 0
-40 -39 0 -22 -5 -41 -12 -44 -7 -3 7 -3 31 -2 43 4 44 4 20 -12 -13 -9 -28
-22 -32 -27 -6 -7 -7 -4 -3 6 4 15 0 16 -27 11 -41 -8 -39 -6 -28 -36 8 -20 6
-28 -10 -43 -10 -9 -19 -12 -19 -6 0 6 6 15 14 19 12 7 12 10 0 21 -8 7 -14 8
-14 2 0 -5 -8 -10 -17 -10 -14 0 -15 -2 -4 -9 9 -6 11 -18 8 -33 -7 -28 -52
-80 -61 -71 -10 10 -7 25 3 18 5 -3 12 -2 15 3 3 5 -19 10 -49 11 l-55 2 0
-44 c0 -24 7 -52 15 -63 8 -10 14 -28 14 -39 -1 -17 -2 -17 -6 -2 -9 33 -23 6
-23 -44 l0 -50 82 3 c68 2 83 0 83 -12 1 -22 15 -60 23 -60 4 0 13 4 20 8 9 6
5 12 -13 22 -14 7 -25 17 -25 22 0 14 16 9 35 -12 10 -11 23 -20 30 -20 6 0
20 -7 31 -16 18 -15 18 -15 -3 -5 -27 13 -36 14 -29 2 3 -5 -12 -8 -34 -7
l-40 2 0 -43 0 -43 40 0 c25 0 40 5 41 13 0 10 2 10 6 0 2 -7 12 -13 20 -13
16 0 60 49 55 63 -1 5 2 6 8 2 6 -3 7 -11 4 -17 -5 -7 0 -9 14 -6 12 4 22 2
22 -2 0 -5 13 -11 30 -15 16 -4 33 -11 37 -17 4 -8 0 -9 -13 -3 -10 4 -29 8
-41 8 -13 -1 -20 3 -17 8 6 11 -7 12 -31 3 -13 -5 -14 -8 -3 -15 10 -7 10 -9
1 -9 -8 0 -13 -15 -13 -40 l0 -40 80 0 80 0 0 -41 0 -41 163 4 162 4 -4 -43
-3 -43 117 0 c89 0 120 3 131 15 8 8 22 11 32 8 14 -6 13 -8 -8 -14 -21 -6
-20 -7 13 -8 36 -1 37 -2 37 -41 l0 -40 40 0 c40 0 40 0 40 39 0 36 -3 40 -27
44 -16 3 -2 3 30 2 31 -2 57 -2 57 0 0 2 -25 9 -55 15 -30 6 -53 16 -50 21 4
5 3 9 -2 9 -14 0 -35 -17 -33 -26 1 -5 -4 -10 -12 -12 -9 -2 -8 0 2 7 12 9 11
11 -7 11 -13 0 -23 5 -23 11 0 6 -9 8 -20 4 -11 -4 -20 -2 -20 4 0 6 5 11 11
11 5 0 7 6 3 13 -6 9 -5 9 8 -1 13 -10 40 -15 116 -21 7 -1 10 -6 7 -11 -3 -6
-1 -10 4 -10 6 0 11 6 11 13 0 9 2 9 8 0 4 -7 34 -19 67 -27 33 -9 48 -14 33
-12 -27 3 -28 1 -28 -40 l0 -44 80 0 c79 0 80 0 80 26 0 27 26 61 38 49 4 -4
1 -10 -6 -12 -6 -3 -12 -18 -12 -34 0 -28 1 -29 49 -27 27 1 47 6 45 10 -3 4
2 8 10 8 9 0 16 -4 16 -9 0 -4 17 -7 38 -6 64 4 69 5 47 16 -19 9 -18 9 2 5
13 -2 26 0 29 5 7 12 -48 11 -81 -1 -19 -7 -24 -7 -19 1 8 13 -54 2 -72 -12
-7 -6 -16 -4 -23 5 -10 12 -8 17 8 25 25 14 41 14 21 1 -11 -7 -8 -10 15 -9
17 0 24 3 18 6 -7 2 -13 9 -13 14 0 6 5 7 12 3 6 -4 39 -9 72 -11 59 -4 95
-20 69 -30 -33 -12 -7 -21 50 -18 34 1 50 1 34 -2 -24 -4 -27 -9 -27 -44 l0
-39 270 2 c160 1 263 6 254 11 -8 5 -25 7 -37 4 -12 -3 -31 -2 -42 2 -15 6 -9
9 25 15 38 7 42 9 25 17 -17 8 -16 9 6 4 14 -2 44 -7 65 -11 21 -3 45 -11 53
-17 11 -9 15 -9 18 1 3 6 9 12 14 12 5 0 4 -9 -3 -19 -10 -16 -15 -18 -27 -8
-11 9 -15 9 -18 0 -3 -7 -12 -13 -21 -12 -11 0 -12 2 -4 6 23 9 12 21 -22 25
-19 2 -32 0 -30 -4 3 -4 12 -8 20 -8 10 0 14 -13 14 -50 l0 -50 339 0 c322 0
340 1 362 20 l24 19 -32 1 c-33 0 -52 -15 -31 -23 8 -3 6 -6 -4 -6 -12 -1 -18
6 -18 20 0 21 3 22 62 16 35 -3 55 -2 44 2 -10 4 21 7 70 7 78 1 82 0 34 -6
-36 -4 -44 -7 -23 -8 18 -1 56 -7 85 -14 51 -11 52 -12 23 -20 -19 -4 6 -6 65
-4 52 1 83 1 68 -1 -25 -4 -28 -8 -28 -44 0 -39 0 -39 40 -39 l40 0 0 40 c0
37 2 40 29 40 16 0 41 2 57 4 16 2 21 1 12 -1 -13 -3 -18 -15 -18 -44 0 -39 0
-39 40 -39 l40 0 0 44 c0 27 -5 46 -12 49 -7 2 -4 3 7 1 11 -2 43 -4 70 -5 28
-1 42 -3 33 -6 -13 -3 -18 -15 -18 -44 l0 -39 240 0 240 0 0 40 0 40 80 0 c72
0 80 -2 80 -19 0 -23 42 -36 70 -21 10 5 29 10 42 10 13 0 30 6 37 12 10 11
12 10 9 -2 -2 -12 10 -15 62 -16 83 -1 86 -2 74 -14 -7 -7 -36 -7 -89 0 -83
11 -129 6 -104 -11 9 -6 -2 -7 -31 -4 -42 4 -42 4 -10 -4 37 -10 478 -9 595 2
52 4 58 3 25 -3 -31 -5 11 -8 135 -8 99 0 190 0 203 -1 19 -1 22 -6 22 -41 l0
-40 80 0 80 0 0 40 0 40 120 0 c76 0 120 4 120 10 0 15 -358 12 -363 -3 -2 -6
-9 -7 -17 -2 -28 17 27 24 215 24 190 1 240 -4 229 -20 -3 -5 0 -9 5 -9 6 0
11 7 11 15 0 12 13 15 63 14 46 -1 56 -3 37 -9 -22 -7 -19 -8 15 -8 22 -1 252
-3 510 -6 259 -3 692 -6 963 -6 l492 0 0 -40 0 -40 40 0 c40 0 40 0 40 38 0
31 5 41 29 55 34 20 64 24 38 4 -14 -10 51 -12 335 -10 194 0 345 -1 336 -4
-13 -3 -18 -15 -18 -44 0 -39 0 -39 40 -39 l40 0 0 55 0 55 74 0 c80 0 109 -6
100 -22 -3 -5 8 -8 28 -7 18 2 70 2 116 1 l82 -2 0 -40 0 -40 40 0 40 0 0 40
0 40 120 0 120 0 0 -40 0 -40 40 0 c40 0 40 0 40 39 0 22 -4 41 -10 43 -5 2
85 2 200 2 116 -1 210 2 210 7 0 5 8 10 18 10 16 1 16 2 0 6 -29 7 -20 19 17
22 134 12 650 -3 696 -20 16 -6 34 -6 50 0 24 10 24 10 -6 11 -33 0 -63 15
-53 25 3 4 15 2 26 -4 12 -6 29 -11 39 -11 15 0 16 2 3 10 -11 7 -5 8 20 4 39
-7 77 -34 48 -34 -9 0 -20 5 -23 10 -9 14 -27 12 -23 -2 3 -7 20 -16 39 -19
22 -4 6 -7 -48 -8 -46 0 -83 3 -83 7 0 25 -657 19 -682 -6 -9 -9 24 -11 143
-8 85 2 187 7 227 11 50 5 72 4 72 -4 0 -8 81 -11 280 -11 l280 0 0 40 0 40
40 0 40 0 0 -40 0 -40 160 0 160 0 0 39 c0 36 3 40 30 46 41 9 50 0 50 -46 l0
-39 120 0 120 0 0 40 0 40 43 0 c33 0 39 3 27 11 -12 9 -12 10 3 5 10 -3 53
-7 95 -8 47 -1 61 -3 35 -5 -43 -4 -43 -4 -43 -44 l0 -39 200 0 200 0 0 39 c0
33 -4 40 -22 43 -13 2 5 4 40 4 l62 1 0 -44 0 -43 40 0 40 0 0 40 0 40 40 0
c22 0 40 5 40 10 0 6 7 10 16 10 8 0 13 -4 10 -9 -3 -5 100 -9 242 -8 136 0
239 2 230 4 -10 3 -18 9 -18 14 0 5 -40 9 -90 9 -80 0 -89 2 -83 17 4 11 8 12
11 5 2 -8 32 -12 93 -12 53 0 89 -4 89 -10 0 -5 14 -10 30 -10 23 0 30 4 30
20 0 11 -5 20 -11 20 -5 0 -7 -5 -3 -12 5 -8 0 -9 -17 -5 -13 4 -30 7 -36 7
-29 0 -10 17 20 18 17 1 53 4 80 8 l47 6 0 -41 0 -41 40 0 40 0 0 40 0 40 83
0 c45 1 118 2 162 4 44 2 61 1 38 -1 -43 -4 -43 -4 -43 -44 l0 -39 280 0 280
0 0 40 0 40 123 1 c67 1 128 1 135 0 6 -1 12 7 12 17 0 15 6 19 28 16 15 -2
19 -1 9 2 -19 6 -19 25 1 32 7 2 12 -3 12 -12 0 -13 12 -16 64 -16 73 0 96 -6
96 -26 0 -10 12 -14 40 -14 l40 0 0 40 c0 34 3 40 23 41 12 1 31 3 42 4 18 2
20 -3 16 -41 l-3 -44 281 0 282 0 -2 55 c-2 48 -5 55 -23 56 -12 1 6 5 39 8
45 5 64 3 75 -7 12 -13 11 -14 -10 -7 -21 7 -22 6 -9 -7 12 -13 81 -15 452
-17 l437 -2 0 40 c0 39 1 41 33 43 17 0 38 1 44 1 7 -1 10 3 7 8 -6 11 30 12
40 2 4 -4 33 -9 64 -10 55 -2 56 -1 27 12 -30 13 -30 13 -4 14 14 1 30 -4 36
-10 5 -5 60 -13 122 -16 l111 -6 0 45 0 45 50 6 c28 3 61 2 73 -3 20 -8 19 -9
-10 -9 -32 -1 -33 -3 -33 -41 l0 -40 80 0 80 0 0 40 c0 25 5 40 13 40 8 0 7 4
-3 10 -10 6 -11 10 -2 10 6 0 12 6 12 13 0 8 12 14 30 14 32 0 40 -11 15 -21
-17 -6 -20 -26 -4 -26 5 0 7 5 4 10 -3 6 4 10 15 10 16 0 20 5 16 15 -4 10 1
15 14 15 11 0 20 -5 20 -11 0 -5 8 -9 18 -7 11 2 19 -1 18 -7 0 -5 -7 -9 -14
-7 -8 2 -11 -1 -7 -7 3 -6 20 -11 36 -11 17 0 28 4 25 9 -10 16 5 40 20 34 10
-4 12 -9 4 -18 -17 -21 11 -25 176 -25 l154 0 0 40 0 40 58 1 c33 1 45 4 27 6
-16 3 -35 9 -41 14 -8 6 -22 3 -41 -7 -22 -13 -40 -15 -78 -10 -40 7 -46 10
-31 18 12 7 21 7 29 -1 14 -14 47 -14 67 0 11 7 6 8 -20 3 -19 -3 -32 -3 -28
1 11 12 100 15 121 4 14 -8 18 -7 15 6 -2 13 8 17 52 20 30 1 48 1 40 -2 -8
-2 -24 -8 -35 -13 -11 -5 -27 -11 -35 -13 -8 -3 -3 -6 13 -6 15 -1 27 -5 27
-11 0 -5 21 -9 48 -9 l47 2 -40 7 c-22 4 -33 8 -25 9 13 1 13 2 0 11 -12 8
-11 10 8 10 12 0 22 -4 22 -10 0 -5 9 -10 20 -10 11 0 20 -4 20 -10 0 -6 60
-10 160 -10 l160 0 0 40 0 40 160 0 160 0 0 43 0 42 200 -3 200 -4 0 41 c0 47
-11 44 138 41 l102 -2 0 35 c0 48 -9 67 -30 67 -11 0 -22 5 -26 11 -4 8 0 9
15 4 11 -3 21 -2 21 3 0 5 7 9 15 9 10 0 12 -4 5 -12 -5 -6 -5 -16 0 -25 9
-13 10 -13 10 0 0 8 7 23 15 33 10 15 18 17 32 8 16 -9 16 -10 1 -11 -9 0 -20
-5 -24 -11 -5 -9 1 -10 19 -5 21 5 25 3 21 -9 -5 -13 7 -15 80 -15 l86 0 0 45
0 45 -56 -4 c-36 -2 -52 -1 -43 5 8 5 30 9 50 9 20 0 42 7 49 15 16 19 54 19
70 0 11 -14 10 -14 -14 -5 -38 14 -46 12 -16 -5 30 -17 8 -20 -23 -3 -20 10
-21 10 -8 -5 7 -10 26 -17 41 -17 26 0 28 -4 31 -42 l4 -43 -42 4 -43 3 0 -45
c0 -42 -2 -45 -22 -40 -21 4 -21 3 -5 -7 13 -9 26 -9 49 -1 17 6 33 9 35 7 5
-5 -55 -26 -73 -26 -7 0 -20 7 -29 16 -20 20 -33 10 -15 -11 11 -13 10 -15 -6
-9 -18 5 -18 5 0 -10 11 -9 16 -16 10 -17 -5 0 -19 -2 -31 -3 -24 -3 -32 19
-10 27 6 2 9 8 5 12 -5 5 -16 1 -26 -8 -10 -10 -25 -17 -33 -17 -10 1 -9 3 4
11 33 19 19 34 -38 37 l-55 3 0 -36 c0 -26 7 -43 23 -57 16 -14 17 -18 5 -14
-10 3 -20 1 -23 -4 -4 -6 -17 -10 -31 -10 -14 0 -22 -4 -19 -10 6 -9 -14 -14
-42 -11 -6 1 -14 -3 -18 -9 -10 -16 -25 -12 -19 5 7 18 -7 20 -24 3 -15 -15
-15 -6 0 27 13 30 28 33 28 5 0 -25 5 -25 37 0 22 17 23 20 7 20 -11 1 -52 3
-93 6 l-74 6 5 -56 c3 -31 4 -56 2 -56 -1 0 -11 -3 -21 -6 -17 -5 -17 -5 0 9
18 15 18 15 0 21 -22 6 -76 2 -91 -8 -6 -3 -13 -2 -17 4 -8 13 -25 13 -25 0 0
-6 10 -15 23 -20 12 -5 17 -9 10 -9 -21 -2 -43 11 -43 25 0 11 -18 14 -80 14
l-80 0 0 -45 c0 -38 3 -44 18 -39 9 4 4 -3 -11 -14 -16 -11 -37 -18 -46 -15
-10 2 -25 -3 -35 -12 -9 -9 -16 -15 -17 -13 -8 35 -6 39 14 33 18 -5 19 -4 7
5 -12 9 -5 10 30 6 l45 -5 -39 11 c-30 8 -44 8 -60 -2 -13 -8 -21 -9 -24 -2
-2 6 -55 11 -143 11 l-139 2 0 -41 c0 -41 9 -47 57 -41 8 1 10 -5 7 -14 -7
-17 -34 -21 -34 -5 0 6 -8 10 -17 9 -11 0 -13 -3 -5 -6 6 -2 10 -9 7 -13 -9
-14 -34 0 -28 16 4 11 -7 14 -56 14 -34 0 -61 -4 -61 -10 0 -5 -5 -10 -11 -10
-5 0 -7 4 -4 10 4 6 -40 10 -124 10 l-131 0 0 -40 c0 -41 4 -44 47 -41 22 2
40 -15 28 -27 -3 -3 -10 0 -15 7 -7 12 -11 11 -25 -2 -9 -10 -24 -17 -33 -17
-9 0 -28 -3 -42 -6 -18 -4 -21 -3 -11 4 11 8 10 11 -5 15 -10 2 0 3 24 2 43
-2 67 10 35 18 -10 2 -123 5 -250 6 l-233 3 0 -41 c0 -41 0 -41 -37 -41 -25 0
-33 -3 -24 -9 26 -17 -7 -21 -45 -5 -30 13 -42 14 -57 4 -14 -8 -22 -8 -33 1
-11 9 -18 9 -26 1 -16 -16 -11 -18 57 -25 57 -5 58 -5 30 8 -16 8 -25 14 -19
15 13 0 84 -28 84 -34 0 -1 -29 -2 -65 0 -36 2 -63 -1 -61 -5 3 -4 -6 -13 -20
-20 -22 -10 -24 -9 -16 5 6 10 5 25 -2 40 -11 23 -15 24 -128 24 l-118 0 0
-46 0 -47 51 6 c63 8 60 0 -4 -12 -35 -6 -49 -5 -58 5 -11 14 -69 16 -69 2 0
-4 15 -9 33 -9 27 -2 28 -2 7 -6 -14 -3 -29 -9 -34 -14 -6 -5 -17 -9 -25 -8
-11 0 -10 3 4 9 19 8 19 9 -3 9 -13 1 -21 5 -18 10 10 16 -35 20 -241 21
l-203 1 0 -41 0 -40 -57 -1 c-32 -1 -105 -1 -163 -1 -67 0 -98 -2 -85 -8 17
-7 17 -9 3 -9 -10 -1 -18 -6 -18 -12 0 -6 -5 -7 -12 -2 -7 4 -20 6 -30 5 -9
-2 -20 2 -24 9 -5 8 2 10 25 7 17 -2 31 -1 31 4 0 4 -70 8 -155 8 l-155 0 0
-40 c0 -42 5 -46 57 -41 12 1 24 -2 26 -6 3 -5 -17 -8 -43 -8 -27 -1 -46 3
-44 7 9 14 -41 9 -62 -7 -12 -9 -40 -14 -74 -13 l-55 1 52 6 c90 11 67 17 -62
18 -80 0 -122 -4 -118 -10 4 -7 -3 -7 -18 -2 -13 5 -104 10 -201 12 l-178 4 0
-39 0 -40 -57 -7 c-32 -4 -62 -10 -68 -13 -5 -4 -35 -7 -65 -8 l-55 -2 35 13
c19 7 33 14 30 14 -9 1 -121 -18 -141 -24 -13 -5 -19 -2 -17 7 2 8 -8 14 -24
16 -29 3 -39 -15 -13 -24 25 -10 17 -19 -27 -32 -24 -7 -49 -16 -57 -19 -8 -3
-11 -1 -7 5 3 6 20 13 36 17 44 10 36 21 -11 17 -29 -3 -40 -1 -35 7 4 6 24
11 44 12 33 1 34 2 12 9 -14 4 -105 8 -202 9 l-178 1 0 -44 0 -44 -160 4
c-164 4 -190 -3 -127 -30 31 -14 31 -14 7 -17 -60 -5 -150 8 -150 21 0 6 7 10
15 10 8 0 15 -4 15 -10 0 -5 18 -10 40 -10 51 0 52 16 3 24 -88 16 -129 18
-113 6 12 -10 11 -10 -5 -4 -11 5 -89 10 -172 12 l-153 3 0 -40 0 -40 53 -4
c28 -2 -29 -2 -128 0 -136 2 -194 0 -235 -11 l-55 -15 115 4 c103 3 108 2 45
-6 -103 -13 -126 -14 -165 -5 -26 5 -31 4 -20 -3 8 -6 10 -11 4 -11 -6 0 -19
9 -29 20 -13 15 -22 17 -36 10 -10 -6 -39 -11 -66 -12 l-48 -1 45 -7 c28 -4
-1 -6 -77 -6 -68 1 -123 4 -123 7 0 3 51 9 113 12 156 8 196 26 60 26 -58 1
-104 -3 -108 -9 -3 -6 -21 -10 -38 -9 -27 0 -29 2 -12 9 12 5 -84 9 -237 9
l-258 1 0 -40 0 -40 43 -2 c23 -1 78 -1 122 0 l80 0 -75 -8 c-71 -7 -88 -7
-160 5 -17 3 -29 1 -26 -4 8 -13 -66 -29 -89 -20 -19 7 -18 8 3 8 27 1 30 21
3 21 -11 0 -27 -10 -36 -22 -12 -16 -19 -19 -22 -10 -6 16 -21 15 -39 -3 -9
-8 -27 -14 -42 -14 -27 1 -27 1 3 9 27 7 25 8 -20 10 l-50 3 64 8 c95 12 95
16 -1 15 -47 -1 -84 -4 -81 -8 5 -10 -31 -10 -41 -1 -4 4 -32 8 -61 8 -67 1
-64 -4 7 -15 l53 -8 -50 -2 c-27 -2 -57 -2 -65 -1 -8 1 -49 3 -90 5 -43 2 -76
8 -78 15 -7 21 -32 11 -32 -13 0 -21 4 -23 43 -21 23 1 31 0 18 -2 -20 -4 -22
-7 -10 -14 10 -8 8 -9 -8 -4 -12 3 -24 1 -28 -5 -10 -16 -25 -12 -19 5 4 11 0
15 -16 15 -22 0 -22 1 -6 19 16 17 16 19 -6 25 -13 3 -146 6 -295 6 l-273 0 0
-39 0 -38 59 -6 c32 -3 99 -3 147 0 49 3 86 2 81 -2 -4 -5 -71 -10 -150 -11
-78 -1 -185 -7 -237 -12 -52 -6 -97 -8 -99 -6 -2 2 6 4 19 4 19 0 21 3 12 12
-17 17 -392 24 -392 8 0 -9 -4 -9 -16 1 -13 11 -17 10 -25 -4 -6 -9 -18 -17
-27 -17 -14 0 -15 2 -2 10 8 5 11 12 7 17 -4 4 -17 1 -29 -6 -17 -10 -22 -10
-29 0 -6 10 -10 10 -23 0 -11 -9 -16 -10 -16 -2 0 6 -17 11 -40 11 -22 0 -40
-4 -40 -9 0 -14 -128 -23 -148 -11 -13 9 -9 10 23 7 22 -3 51 -1 65 3 14 4
-183 8 -437 9 l-463 1 0 -40 0 -40 68 0 c52 -1 63 -3 49 -11 -10 -6 -25 -8
-33 -5 -29 11 -484 18 -484 7 0 -6 37 -12 93 -14 54 -1 21 -4 -80 -5 -103 -1
-173 2 -173 7 0 6 19 12 43 14 23 2 -78 4 -225 3 -183 -1 -271 -5 -278 -12 -9
-9 -4 -13 17 -19 l28 -8 -25 -7 c-33 -10 -367 -12 -373 -2 -3 4 77 7 176 6
l182 -1 -177 6 c-97 3 -179 8 -181 11 -3 3 71 4 164 2 150 -3 169 -2 169 13 0
14 -21 16 -192 14 -116 0 -198 -5 -206 -11 -7 -6 -36 -8 -70 -5 -36 3 -48 2
-32 -3 31 -10 13 -12 -31 -3 -28 5 -30 7 -14 14 11 4 -42 8 -117 8 -116 1
-138 -1 -138 -14 0 -13 21 -15 127 -15 69 0 124 -3 120 -6 -3 -4 -383 -7 -844
-7 -535 0 -840 -4 -844 -10 -8 -11 -29 -1 -29 14 0 5 25 9 55 9 44 0 55 3 55
16 0 15 -9 16 -77 8 -43 -5 -112 -7 -153 -5 -325 13 -330 13 -330 -3 0 -14 19
-16 133 -18 l132 -2 -145 -6 -145 -6 145 -4 145 -4 -120 -4 c-66 -2 -140 0
-165 4 l-45 7 29 12 c54 23 6 30 -214 32 -170 2 -217 0 -225 -11 -7 -9 -42
-15 -104 -18 -52 -2 -85 -1 -75 3 10 4 36 8 57 8 20 1 37 6 37 12 0 8 -45 9
-160 5 l-160 -7 0 46 0 45 -342 -1 c-189 -1 -332 -5 -318 -9 l25 -8 -28 -1
c-18 -1 -26 -5 -21 -12 3 -6 15 -9 25 -6 11 3 19 1 19 -4 0 -5 -16 -9 -36 -9
-22 0 -33 4 -29 10 4 6 1 17 -5 25 -15 18 -195 22 -205 5 -3 -5 -15 -10 -26
-10 -11 0 -18 3 -16 8 4 6 -32 8 -70 4 -16 -2 -17 -32 -1 -32 6 0 9 -2 7 -4
-5 -6 -211 22 -218 30 -3 2 20 2 50 -1 29 -3 68 -2 84 4 24 7 8 9 -72 10
l-103 1 0 40 0 40 -172 0 c-134 0 -169 -3 -160 -12 17 -17 15 -28 -4 -28 -9 0
-18 9 -21 20 -6 22 -33 28 -33 7 0 -13 35 -47 60 -59 11 -5 9 -7 -7 -7 -25 -1
-63 31 -63 53 0 10 -18 16 -57 20 -78 8 -415 4 -383 -4 14 -4 84 -6 155 -5 96
2 120 0 90 -7 -45 -10 -226 -4 -295 10 -33 7 -38 10 -17 11 25 1 27 4 27 41
l0 40 -200 -2 c-155 -2 -197 -5 -185 -14 13 -10 11 -12 -14 -16 -17 -2 -37 0
-47 5 -11 6 -19 5 -24 -3 -5 -9 -9 -9 -14 -1 -4 6 -2 11 5 11 10 0 10 3 2 11
-6 6 -29 10 -50 8 l-38 -4 4 43 3 43 -108 -2 c-63 -1 -100 -5 -89 -10 18 -7
17 -8 -6 -8 -14 -1 -29 2 -33 6 -3 4 -32 8 -64 10 -36 2 -52 0 -43 -6 8 -5 10
-14 6 -21 -6 -10 -11 -9 -21 4 -15 21 -84 32 -111 18 -13 -7 -24 -7 -34 0 -11
8 -11 9 4 4 14 -5 17 1 17 39 l0 45 -40 0 c-22 0 -40 -4 -40 -10 0 -5 -9 -10
-20 -10 -11 0 -20 -4 -20 -10 0 -13 -31 -13 -50 1 -12 8 -9 9 10 4 18 -5 21
-4 11 4 -11 7 -5 11 25 14 21 2 5 3 -36 1 -99 -3 -100 -4 -61 -18 27 -10 31
-14 18 -19 -9 -3 -17 -2 -17 4 0 6 -12 10 -28 9 -55 -4 -83 0 -77 10 4 6 14 8
23 6 10 -3 24 -1 32 5 13 9 12 10 -2 5 -33 -10 -48 4 -48 45 0 39 0 39 -39 39
-21 0 -62 -5 -92 -10 -35 -7 -56 -7 -63 0 -5 5 -18 10 -28 10 -14 0 -18 8 -18
40 l0 41 -82 -3 c-60 -2 -82 -6 -80 -16 3 -18 -61 -11 -70 8 -4 8 -7 32 -7 53
l-1 37 -80 0 c-50 0 -80 -4 -80 -11 0 -5 -5 -7 -12 -3 -9 6 -9 9 0 12 7 2 12
21 12 43 l0 39 -80 0 c-57 0 -80 -4 -81 -12 -1 -7 -2 -20 -3 -28 -1 -11 -11
-14 -36 -12 -33 3 -53 18 -47 36 4 12 28 21 26 9 -4 -22 2 -32 17 -26 13 5 13
8 2 15 -9 6 -5 7 11 3 16 -5 21 -4 17 4 -4 6 -2 11 3 11 6 0 11 18 11 40 l0
40 -80 0 -80 0 0 40 0 40 -40 0 -40 0 0 40 0 40 -40 0 -40 0 0 41 0 41 -43 -3
-42 -4 4 43 3 42 -40 0 c-36 0 -41 -4 -57 -36 -9 -20 -14 -38 -11 -41 3 -3 10
5 16 18 10 23 10 23 6 1 -2 -12 0 -22 5 -22 5 0 9 -5 9 -11 0 -5 -5 -7 -10 -4
-6 3 -10 1 -10 -5 0 -6 11 -15 25 -20 24 -9 37 -50 15 -50 -5 0 -10 7 -10 15
0 8 -4 15 -9 15 -4 0 -22 23 -40 51 -32 52 -42 79 -16 45 15 -20 20 -10 9 18
-3 8 -12 12 -21 9 -11 -4 -14 -2 -9 5 11 18 36 14 36 -5 0 -15 2 -14 15 3 21
28 22 583 1 565 -18 -15 -28 18 -13 45 10 18 11 17 17 -6 5 -21 12 -25 48 -28
l42 -3 0 48 c0 27 -5 54 -12 61 -8 8 -8 12 -1 12 5 0 9 12 7 28 -3 23 10 40
82 109 53 51 91 80 100 76 9 -3 12 0 9 8 -6 16 31 43 46 34 14 -9 -1 -27 -17
-21 -7 3 -16 1 -19 -3 -6 -11 23 -23 36 -15 5 3 9 0 9 -5 0 -7 30 -11 80 -11
l80 0 0 46 0 46 -32 -7 c-19 -4 -29 -4 -25 1 9 9 13 10 42 13 24 2 17 21 -7
21 -45 0 -47 14 -8 43 27 19 41 24 46 16 4 -7 3 -10 -2 -6 -13 7 -47 -19 -42
-33 2 -7 13 -3 27 9 14 12 32 19 42 16 9 -3 20 -1 24 5 3 5 1 11 -4 11 -26 3
-30 4 -37 12 -4 4 0 7 9 7 10 0 17 4 17 8 0 5 6 9 14 9 7 0 13 -7 13 -16 0
-38 4 -41 42 -41 40 0 40 0 43 43 3 41 4 42 38 40 19 0 27 1 17 4 -9 2 -17 9
-17 14 0 14 17 11 34 -6 8 -8 31 -15 50 -15 35 0 36 1 36 38 0 36 2 38 55 59
59 24 90 29 80 13 -3 -5 -16 -10 -28 -10 -12 0 -27 -4 -34 -8 -7 -4 29 -9 78
-10 l91 -3 -4 52 c-2 33 -8 54 -17 57 -8 3 -11 0 -7 -7 5 -7 1 -9 -10 -4 -14
5 -13 8 7 19 13 7 33 13 44 12 17 0 17 -1 2 -5 -9 -2 -17 -9 -17 -15 0 -6 7
-7 18 -3 9 4 28 9 42 11 23 4 22 3 -4 -7 -46 -18 -12 -29 92 -29 l92 0 0 40 0
40 120 0 120 0 0 50 c0 39 4 52 18 56 45 14 56 23 22 17 -41 -7 -38 0 7 15 25
8 32 8 30 -1 -1 -8 12 -11 40 -9 47 3 58 -12 18 -22 -47 -12 -25 -26 40 -26
l65 0 0 39 c0 41 17 57 50 46 18 -6 35 19 25 35 -3 5 -1 11 4 14 5 3 11 -3 14
-14 3 -11 0 -20 -6 -20 -8 0 -7 -3 2 -9 7 -5 80 -9 162 -10 l149 -2 0 46 c0
38 -4 47 -22 54 -18 6 -11 8 27 8 42 0 45 -1 20 -7 -35 -9 -33 -11 12 -15 20
-2 33 2 33 9 0 7 3 7 8 1 4 -5 21 -10 39 -10 38 0 27 17 -14 21 -15 2 -48 7
-73 12 l-45 8 35 6 c101 18 111 18 105 7 -4 -6 -18 -9 -31 -6 -14 2 -27 0 -30
-4 -3 -5 16 -9 41 -9 38 0 48 -4 52 -20 5 -18 14 -20 84 -20 l79 0 0 40 c0 39
1 40 41 46 43 7 36 22 -11 25 -23 1 -23 2 5 9 17 4 52 8 78 9 27 0 46 5 43 9
-2 4 3 8 12 8 9 0 31 3 47 7 17 3 24 4 16 0 -11 -4 -11 -7 0 -14 18 -11 9 -18
-27 -23 -16 -2 -21 -1 -11 1 9 2 17 9 17 14 0 13 -27 11 -41 -3 -7 -8 -31 -12
-63 -10 -36 2 -47 0 -36 -7 8 -5 26 -8 40 -7 14 2 18 1 10 -1 -8 -3 -19 -9
-24 -14 -13 -12 47 -12 60 0 13 12 84 22 84 11 0 -5 -15 -11 -32 -13 -18 -2
54 -5 161 -5 l193 -2 -3 43 -4 42 243 -3 242 -3 0 40 c0 22 6 42 13 45 6 3 -1
3 -18 0 -26 -4 -27 -3 -10 6 16 8 13 9 -18 6 -45 -6 -76 2 -56 15 15 9 54 3
122 -18 30 -9 63 -13 85 -9 20 4 46 6 57 6 11 -1 120 -4 243 -6 l222 -5 0 46
c0 25 4 45 9 45 5 0 12 10 16 23 6 20 8 20 12 3 4 -14 11 -17 36 -13 18 3 26
3 20 0 -25 -9 -13 -23 15 -17 44 11 47 16 16 30 -18 7 -22 13 -12 13 9 1 25 4
35 7 15 5 15 4 3 -5 -13 -9 -13 -11 1 -11 8 0 20 5 26 11 13 13 144 19 137 7
-3 -5 -26 -8 -50 -7 -24 2 -50 -3 -56 -9 -9 -9 2 -11 50 -6 35 4 62 3 62 -2 0
-5 -24 -9 -53 -10 -28 0 -60 -5 -70 -10 -12 -7 54 -11 213 -13 l230 -2 0 40
c0 31 -4 41 -16 41 -8 0 -13 4 -10 9 3 5 23 7 44 4 21 -3 55 0 77 6 21 6 41 8
44 6 2 -3 -10 -8 -27 -11 -30 -6 -32 -9 -32 -50 l0 -44 120 0 120 0 0 39 0 38
60 6 c33 4 86 5 118 3 31 -2 40 -1 20 1 -21 2 -38 9 -38 15 0 7 -21 9 -62 5
-40 -3 -53 -2 -36 3 15 4 66 8 113 8 80 0 85 -1 80 -19 -7 -20 18 -28 30 -9 3
5 11 10 16 10 6 0 7 -4 4 -10 -3 -5 -1 -10 4 -10 6 0 11 7 11 15 0 20 56 20
64 0 5 -13 64 -15 451 -15 l445 0 0 40 0 40 -40 0 c-22 0 -40 5 -40 10 0 6
-20 10 -45 10 -25 0 -45 -4 -45 -10 0 -15 -19 -12 -36 5 -14 13 -9 15 39 15
30 0 74 2 98 4 29 2 34 2 14 -3 -28 -6 -27 -7 23 -19 70 -16 192 -16 192 0 0
9 3 9 12 0 14 -14 52 -16 43 -2 -3 6 1 10 9 10 9 0 16 -4 16 -8 0 -5 36 -9 80
-10 63 -1 80 2 80 13 0 12 -20 14 -110 10 -66 -2 -110 0 -110 5 0 6 10 10 23
10 12 0 33 3 47 5 22 5 22 4 5 -4 -20 -9 -20 -10 1 -10 12 -1 50 2 85 6 l64 8
-45 6 -45 6 43 1 c23 1 42 7 42 12 0 6 18 10 40 10 l40 0 0 40 0 40 -40 0 -40
0 0 6440 0 6440 38 0 c21 0 41 2 44 5 3 3 2 24 -2 48 -7 36 -6 39 5 24 7 -10
10 -28 7 -40z m1112 -1401 c-4 -12 -2 -15 9 -10 19 7 83 -61 79 -83 -2 -11 2
-14 13 -9 9 3 13 2 10 -3 -3 -6 2 -14 11 -19 22 -12 11 -30 -18 -28 -19 1 -23
7 -23 36 0 23 -8 43 -23 58 -27 27 -64 38 -56 17 3 -8 13 -11 21 -8 11 4 14 2
11 -8 -3 -8 -13 -13 -22 -13 -13 1 -16 -8 -16 -42 l0 -44 40 0 40 0 0 -40 0
-40 40 0 40 0 0 -41 0 -40 43 3 c28 2 41 7 39 16 -1 8 2 11 8 7 5 -3 10 -2 10
4 0 5 -4 13 -10 16 -5 3 -10 11 -10 17 0 6 8 3 19 -8 14 -14 16 -22 8 -32 -9
-11 -7 -13 9 -10 15 2 18 -2 16 -19 -3 -18 2 -23 17 -23 12 0 21 -6 21 -12 2
-1459 4 -11735 2 -11728 -2 6 -24 10 -48 10 l-44 0 0 -80 0 -79 -82 -3 c-82
-3 -83 -3 -81 -28 l3 -25 -20 24 c-11 13 -23 21 -27 17 -4 -3 3 -16 15 -29 31
-33 27 -43 -4 -13 -31 28 -27 57 8 53 22 -2 23 1 26 81 l3 82 -56 0 -55 0 0
6040 c0 5362 2 6040 15 6040 8 0 15 3 15 6 0 3 -7 12 -15 20 -8 9 -15 20 -15
26 0 6 9 -1 20 -15 11 -14 17 -32 14 -41z m1222 -1288 c4 4 4 1 -1 -7 -6 -11
-11 -9 -24 8 -9 12 -20 19 -24 15 -4 -4 -7 -2470 -7 -5479 0 -4955 2 -5473 16
-5491 8 -10 13 -13 9 -6 -3 6 -2 12 3 12 6 0 12 -6 15 -14 6 -15 -1 -26 -14
-26 -13 0 -39 56 -39 82 0 19 -2 20 -11 8 -9 -12 -9 -11 -2 5 4 11 9 2466 10
5455 2 2989 6 5442 10 5450 3 8 5 20 4 25 -1 6 10 -2 23 -17 13 -15 27 -24 32
-20z m54 -188 l0 -40 40 0 40 0 0 -40 c0 -40 0 -40 39 -40 37 0 58 13 56 35
-2 24 -27 55 -38 49 -7 -4 -9 -4 -5 1 4 4 2 17 -4 29 -14 26 -11 24 46 -46
l46 -58 -3 -5287 -2 -5288 -3 5294 c-1 2912 -4 5292 -7 5289 -3 -2 -6 -2389
-8 -5304 l-2 -5299 -5 5293 c-3 3515 -8 5293 -15 5295 -7 1 -11 -1765 -13
-5281 l-2 -5282 -40 0 c-40 0 -40 0 -40 -40 l0 -40 -40 0 -40 0 0 40 c0 40 0
40 -39 40 -23 0 -41 -5 -44 -12 -2 -7 -3 -4 -1 7 2 11 4 2429 4 5373 l0 5352
40 0 40 0 0 -40z m1088 -903 c9 -10 5 -13 -18 -11 -29 2 -30 1 -30 -43 l0 -44
43 3 c39 3 42 5 41 31 -1 23 1 25 15 15 44 -35 50 -45 24 -45 -40 0 -43 -3
-43 -44 l0 -40 80 4 c45 2 80 0 80 -5 0 -5 6 -6 13 -2 9 6 9 4 1 -7 -18 -24
-14 -55 6 -56 13 -1 17 3 13 13 -3 8 -9 14 -14 14 -5 0 -9 5 -9 10 0 16 26 12
41 -7 11 -13 11 -15 1 -9 -9 6 -12 3 -10 -10 2 -13 -3 -19 -17 -19 -16 0 -21
-8 -23 -42 l-3 -43 40 0 41 0 0 -4680 0 -4680 -40 0 -41 0 3 -83 c3 -75 5 -82
22 -79 18 3 18 2 6 -13 -13 -15 -15 -15 -26 -1 -8 12 -29 16 -88 16 l-76 0 0
39 c0 40 0 40 -42 43 l-43 3 -3 4880 c-1 2684 0 4886 3 4893 6 16 40 16 53 -1z
m1146 -967 c11 0 125 -94 120 -99 -2 -2 -22 10 -43 27 -46 37 -64 42 -33 10
l21 -23 -26 -2 c-15 0 -21 2 -14 6 9 6 9 10 -1 19 -11 8 -14 -1 -16 -49 l-3
-59 40 0 41 0 0 -40 0 -40 68 0 c77 0 102 10 83 33 -7 9 -8 18 -3 21 6 3 15
-1 22 -9 7 -8 15 -13 19 -10 4 2 10 -22 12 -53 2 -31 4 -1963 4 -4292 0 -3195
-3 -4241 -12 -4260 -9 -21 -10 -16 -6 32 5 51 4 58 -12 58 -16 0 -17 -7 -13
-57 3 -32 3 -50 1 -40 -3 13 -15 17 -45 17 l-41 0 5 -53 c3 -28 3 -46 1 -39
-3 7 -24 12 -54 12 -38 0 -49 -4 -49 -16 0 -9 -6 -14 -12 -11 -7 2 -12 10 -10
16 1 6 -6 11 -17 11 -21 0 -32 52 -25 123 3 31 2 37 -5 22 -6 -13 -10 1602
-10 4363 -1 2919 -4 4381 -11 4377 -7 -4 -10 -1466 -10 -4353 0 -3767 2 -4356
15 -4417 13 -62 13 -86 1 -74 -3 2 -8 18 -13 34 -4 17 -10 2008 -13 4426 -4
3905 -3 4396 10 4392 11 -3 10 -1 -2 10 -10 8 -14 17 -10 21 3 4 14 -2 23 -13
10 -12 20 -21 23 -21z m1167 -970 c39 0 39 0 39 -40 l0 -40 40 0 40 0 0 -40 0
-40 80 0 c64 0 80 3 80 15 0 8 7 15 15 15 8 0 15 -7 15 -16 0 -8 -4 -12 -10
-9 -7 4 -11 -1281 -12 -3847 -1 -2119 -3 -3832 -5 -3805 l-4 47 -40 0 -39 0 0
-79 c0 -84 4 -91 52 -86 l27 3 -21 -29 c-13 -17 -28 -27 -36 -24 -10 4 -12 0
-8 -12 6 -14 4 -15 -4 -7 -9 9 -9 17 0 34 18 33 0 40 -105 40 -69 0 -86 -3
-77 -12 21 -21 13 -32 -8 -13 -20 18 -21 18 -14 -1 7 -17 6 -17 -9 -5 -17 14
-23 32 -9 30 25 -4 32 4 32 42 0 41 0 41 -35 37 l-35 -4 2 3966 c1 2181 3
3946 5 3923 4 -43 4 -43 44 -43z m1169 -688 c-22 -8 -8 -19 18 -14 15 2 24 1
20 -3 -4 -4 -23 -7 -42 -7 l-36 0 2 -3539 c2 -1946 0 -3531 -4 -3521 -4 9 -7
1606 -7 3547 -1 2306 -5 3529 -11 3528 -14 -4 -12 14 3 21 10 5 10 7 0 12 -7
3 -13 10 -13 15 0 5 18 -1 40 -13 22 -13 35 -24 30 -26z m-63 -5315 c-1 -969
-2 -176 -2 1763 0 1939 1 2732 2 1762 2 -969 2 -2555 0 -3525z m187 5231 c-5
-7 -2 -9 8 -5 9 3 24 -1 35 -8 10 -8 13 -15 7 -15 -6 0 -14 3 -18 7 -10 11
-49 12 -66 2 -10 -7 -2 -9 25 -7 38 2 40 1 37 -25 -2 -15 2 -27 9 -27 9 0 9
-3 0 -14 -10 -12 -6 -13 29 -9 l40 6 0 -3444 c0 -2435 3 -3455 11 -3483 8 -29
8 -41 -2 -46 -7 -5 -9 -18 -6 -32 7 -28 -1 -44 -28 -50 -18 -5 -18 -6 5 -16
16 -7 19 -11 9 -11 -9 -1 -22 -8 -29 -16 -14 -17 -40 -20 -40 -5 0 6 7 10 15
10 8 0 15 9 15 20 0 18 -7 20 -55 20 l-55 0 0 39 c0 39 0 39 -44 42 -24 2 -42
1 -39 -3 2 -5 -1 -8 -6 -8 -14 0 -14 47 -1 55 7 4 10 1182 10 3500 l0 3494 43
3 c26 2 41 8 40 15 -2 7 4 10 12 7 8 -4 17 1 21 10 3 9 10 13 15 10 5 -3 6
-10 3 -16z m146 -76 c3 -3 -2 -3 -12 1 -18 6 -30 -1 -22 -14 2 -5 16 -4 29 1
l25 9 2 -3467 c2 -1907 1 -3474 -2 -3482 -3 -9 -7 -3 -11 15 -5 23 -7 17 -8
-27 -1 -36 3 -58 11 -60 18 -6 -33 -88 -72 -116 -17 -13 -36 -21 -43 -18 -7 2
-4 5 6 5 9 1 17 6 17 11 0 6 11 15 25 20 24 9 29 19 26 48 -1 7 3 11 8 10 8
-2 11 1090 11 3514 0 2407 3 3518 10 3521 6 3 5 4 -2 3 -11 -2 -14 -667 -18
-3447 l-5 -3444 -3 3448 c-2 3054 -4 3448 -17 3452 -48 15 -50 18 -20 25 l30
7 -27 7 c-16 5 -26 12 -23 17 5 7 67 -22 85 -39z m4781 -7731 c-24 -15 16 -21
131 -19 64 2 104 6 101 12 -4 5 1 7 11 3 10 -4 23 -7 29 -7 7 0 6 -5 -3 -10
-11 -8 3 -9 45 -5 33 3 80 2 105 -3 34 -6 10 -8 -98 -8 -114 0 -145 -3 -153
-15 -8 -12 -11 -11 -20 4 -14 23 -104 25 -95 2 4 -11 -2 -15 -23 -15 -25 0
-28 3 -23 22 4 18 2 20 -19 15 -13 -4 -58 -8 -99 -9 l-75 -2 85 -6 85 -6 -77
-2 c-80 -2 -112 4 -102 19 3 5 -5 9 -18 9 -15 0 -19 -3 -10 -8 6 -5 -40 -7
-105 -5 -64 2 -119 6 -122 9 -3 3 42 4 102 2 99 -3 126 2 95 16 -7 3 -4 4 7 2
16 -4 129 2 245 12 12 1 13 0 1 -7z m418 -57 c2 -2 -5 -4 -17 -4 -19 0 -22 -6
-22 -39 0 -22 5 -41 10 -43 6 -1 -30 -2 -80 -2 -49 1 -90 -1 -90 -4 0 -10 35
-31 53 -32 10 0 20 7 23 15 7 17 64 21 64 5 0 -6 -6 -10 -12 -9 -27 3 -39 -1
-32 -12 7 -12 -28 -10 -106 6 -19 4 -43 7 -52 7 -10 -1 -21 4 -24 10 -4 7 -2
8 4 4 7 -4 12 -2 12 3 0 6 7 11 15 11 8 0 15 -4 15 -10 0 -16 27 -11 34 6 3 9
6 32 6 53 l0 37 43 -1 c23 -1 56 2 72 6 27 6 73 2 84 -7z m734 -483 c2 -22 0
-46 -5 -53 -5 -8 -8 -2 -9 17 -2 29 -2 29 -8 -5 -3 -19 -3 -36 1 -38 15 -7
-12 -41 -62 -77 -28 -21 -54 -35 -57 -31 -3 3 2 9 11 12 14 5 15 9 4 16 -9 7
-7 8 9 5 13 -3 24 1 27 9 3 8 12 14 21 14 8 0 15 5 15 10 0 14 -12 12 -38 -6
-13 -9 -26 -13 -30 -9 -4 3 1 11 10 16 19 11 13 39 -8 39 -10 0 -14 12 -14 40
l0 40 40 0 c37 0 40 2 41 28 0 15 3 21 6 14 2 -6 9 -10 14 -6 15 9 10 -13 -6
-26 -17 -14 -21 -85 -4 -75 5 4 8 12 6 18 -2 7 3 30 11 51 12 30 13 41 4 44
-7 2 -9 8 -6 14 10 16 23 -14 27 -61z"/>
<path d="M6880 265 c0 -13 47 -15 360 -15 313 0 360 2 360 15 0 13 -47 15
-360 15 -313 0 -360 -2 -360 -15z"/>
</g>
</svg>
